# xmcd
#
# Track frame offsets: 
#        150
#        6300
#        50360
#        109165
#        125478
#        152905
#        183379
#        207549
#
# Disc length: 3692 seconds
#
# Revision: 3
# Processed by: cddbd v1.5.2PL0 Copyright (c) Steve Scherf et al.
# Submitted via: ExactAudioCopy v0.95b3
#
DISCID=6e0e6a08
DTITLE=Morgion - Cloaked By Ages, Crowned In Earth [DARK 22]
DYEAR=2004
DGENRE=Doom Metal
TTITLE0=Cloaked By Ages
TTITLE1=A Slow Succumbing
TTITLE2=Ebb Tide (Parts I and II)
TTITLE3=Trillium Rune
TTITLE4=The Mourner's Oak
TTITLE5=Cairn
TTITLE6=She, The Master Covets
TTITLE7=Crowned In Earth
EXTD=Epic Hard Doom Metal YEAR: 2004
EXTT0=
EXTT1=
EXTT2=
EXTT3=
EXTT4=
EXTT5=
EXTT6=
EXTT7=
PLAYORDER=
